<svg height="72" viewBox="0 0 75 72" width="75" xmlns="http://www.w3.org/2000/svg"><g fill="#81b3d2" fill-rule="nonzero"><path d="m29.656 65.033h16v-23.823h-16zm2.937-20.899h10.125v17.976h-10.125z"/><path d="m72.771 39.253 2.076-2.068-9.908-9.865v-27.32h-13.812v13.567l-13.627-13.567-37.348 37.185 2.077 2.068 7.832-7.795v37.618h-3.937v2.924h63.875v-2.924h-5.059v-37.618zm-10.769 29.823h-49.003v-40.542l24.501-24.385 24.502 24.385zm0-44.682-7.938-7.902v-13.568h7.938z"/><path d="m29.906 27.08c0 4.261 3.47 7.713 7.75 7.713 4.279 0 7.75-3.452 7.75-7.713 0-4.259-3.471-7.713-7.75-7.713-4.281 0-7.75 3.454-7.75 7.713zm7.75-4.945c2.744 0 4.969 2.214 4.969 4.945 0 2.732-2.225 4.948-4.969 4.948-2.746 0-4.97-2.216-4.97-4.948 0-2.731 2.225-4.945 4.97-4.945zm-20.595 19.075h3v3.919h-3zm5.938 0h3v3.919h-3zm-5.938 5.972h3v3.919h-3zm5.938 0h3v3.919h-3zm25.999-5.972h3v3.919h-3zm5.938 0h3v3.919h-3zm-5.938 5.972h3v3.919h-3zm5.938 0h3v3.919h-3z"/></g></svg>